HIERARCHY
ROOT Hips
{
	OFFSET 0.00000 0.00000 0.00000
	CHANNELS 6 Xposition Yposition Zposition Zrotation Yrotation Xrotation 
	JOINT LHipJoint
	{
		OFFSET 0 0 0
		CHANNELS 3 Zrotation Yrotation Xrotation
		JOINT LeftHip
		{
			OFFSET 1.62067 -1.77917 0.70989
			CHANNELS 3 Zrotation Yrotation Xrotation
			JOINT LeftKnee
			{
				OFFSET 2.34532 -6.44371 0.00000
				CHANNELS 3 Zrotation Yrotation Xrotation
				JOINT LeftAnkle
				{
					OFFSET 2.74224 -7.53425 0.00000
					CHANNELS 3 Zrotation Yrotation Xrotation
					JOINT LeftToe
					{
						OFFSET 0.17032 -0.46794 2.08086
						CHANNELS 3 Zrotation Yrotation Xrotation
						End Site
						{
							OFFSET 0.00000 -0.00000 1.07476
						}
					}
				}
			}
		}
	}
	JOINT RHipJoint
	{
		OFFSET 0 0 0
		CHANNELS 3 Zrotation Yrotation Xrotation
		JOINT RightHip
		{
			OFFSET -1.55811 -1.77917 0.70989
			CHANNELS 3 Zrotation Yrotation Xrotation
			JOINT RightKnee
			{
				OFFSET -2.33243 -6.40830 0.00000
				CHANNELS 3 Zrotation Yrotation Xrotation
				JOINT RightAnkle
				{
					OFFSET -2.78798 -7.65993 0.00000
					CHANNELS 3 Zrotation Yrotation Xrotation
					JOINT RightToe
					{
						OFFSET -0.22707 -0.62388 2.04059
						CHANNELS 3 Zrotation Yrotation Xrotation
						End Site
						{
							OFFSET -0.00000 -0.00000 1.07030
						}
					}
				}
			}
		}
	}
	JOINT lowerback
	{
		OFFSET 0 0 0
		CHANNELS 3 Zrotation Yrotation Xrotation
		JOINT Chest
		{
			OFFSET 0.02203 1.91565 0.07161
			CHANNELS 3 Zrotation Yrotation Xrotation
			JOINT Chest2
			{
				OFFSET 0.01740 1.90525 0.11636
				CHANNELS 3 Zrotation Yrotation Xrotation
				JOINT lowerneck
				{
					OFFSET 0 0 0
					CHANNELS 3 Zrotation Yrotation Xrotation
					JOINT Neck
					{
						OFFSET -0.10841 1.83566 0.05067
						CHANNELS 3 Zrotation Yrotation Xrotation
						JOINT Head
						{
							OFFSET 0.06601 1.74760 -0.50505
							CHANNELS 3 Zrotation Yrotation Xrotation
							End Site
							{
								OFFSET 0.03102 1.85215 -0.17697
							}
						}
					}
				}
				JOINT LeftCollar
				{
					OFFSET 0 0 0
					CHANNELS 3 Zrotation Yrotation Xrotation
					JOINT LeftShoulder
					{
						OFFSET 2.87059 1.35470 0.16111
CHANNELS 3 Zrotation Xrotation Yrotation
						JOINT LeftElbow
						{
OFFSET 0 -5.435920 0.000000
CHANNELS 3 Zrotation Xrotation Yrotation
							JOINT LeftWrist
							{
OFFSET 0 -3.254600 0.000000
CHANNELS 3 Zrotation Xrotation Yrotation
								JOINT lhand
								{
									OFFSET 0 0 0
CHANNELS 3 Zrotation Xrotation Yrotation
									JOINT LFingers
									{
OFFSET 0 -0.498240 0.000000
CHANNELS 3 Zrotation Xrotation Yrotation
										End Site
										{
OFFSET 0 -0.401700 0.000000
										}
									}
								}
								JOINT LThumb
								{
OFFSET 0 0.000000 0.000000
CHANNELS 3 Zrotation Xrotation Yrotation
									End Site
									{
OFFSET 0 -0.407830 0.407830
									}
								}
							}
						}
					}
				}
				JOINT RightCollar
				{
					OFFSET 0 0 0
					CHANNELS 3 Zrotation Yrotation Xrotation
					JOINT RightShoulder
					{
						OFFSET -2.86643 1.23488 0.45957
CHANNELS 3 Zrotation Xrotation Yrotation
						JOINT RightElbow
						{
OFFSET 0 -5.338300 0.000000
CHANNELS 3 Zrotation Xrotation Yrotation
							JOINT RightWrist
							{
OFFSET 0 -3.231480 0.000000
CHANNELS 3 Zrotation Xrotation Yrotation
								JOINT rhand
								{
									OFFSET 0 0 0
CHANNELS 3 Zrotation Xrotation Yrotation
									JOINT RFingers
									{
OFFSET 0 -0.463640 0.000000
CHANNELS 3 Zrotation Xrotation Yrotation
										End Site
										{
OFFSET 0 -0.373800 0.000000
										}
									}
								}
								JOINT RThumb
								{
OFFSET 0 0.000000 0.000000
CHANNELS 3 Zrotation Xrotation Yrotation
									End Site
									{
OFFSET 0 -0.379510 0.379510
									}
								}
							}
						}
					}
				}
			}
		}
	}
}
MOTION
Frames: 7
Frame Time: 0.008333333333333333
4.567004 17.466227 2.442525 -6.274350 -9.761231 4.279485 0.000000 0.000000 0.000000 -21.739119 -4.406568 -15.069968 2.150322 9.172417 26.336160 0.576817 1.117256 -14.794184 0.579445 4.874377 13.550619 0.000000 0.000000 0.000000 4.099301 22.519750 -103.169944 -24.790634 -19.440573 104.133461 -6.461518 -10.488752 46.957120 -0.192765 2.827542 -7.798988 2.964687 -0.368352 12.583636 1.346266 -0.128520 5.063177 -0.252575 -0.056449 -1.749473 -2.390435 -0.521832 -12.670678 0.661439 -0.480910 36.094207 0.606589 -0.497775 14.560012 0.000000 0.000000 0.000000 55.982618 21.241347 6.037118 14.798869 -23.865191 3.144139 33.558294 -27.046757 29.766312 0.000000 0.000000 0.000000 -7.125000 0.000000 0.000000 1.358309 -4.357068 1.317304 0.000000 0.000000 0.000000 -53.101346 22.311465 -1.918504 -20.870516 -31.676901 -5.981820 -24.915628 20.746100 38.465453 0.000000 0.000000 0.000000 7.125000 0.000000 0.000000 15.212093 70.668040 -9.391042
4.564140 17.468754 2.427601 -6.499739 -9.758552 4.360401 0.000000 0.000000 0.000000 -21.439601 -4.351721 -15.350362 2.190042 9.251130 26.584180 0.581880 0.949725 -14.784836 0.583751 4.892231 13.601468 0.000000 0.000000 0.000000 4.284492 22.632252 -103.107664 -24.662255 -19.470634 103.747989 -6.579218 -9.691412 47.481108 -0.244246 3.177239 -8.772753 3.147938 -0.359595 12.520217 1.445484 -0.101227 5.206063 -0.256782 -0.039024 -1.564453 -2.175565 -0.527042 -12.852674 0.253515 -0.391874 35.812474 0.414407 -0.481342 14.467413 0.000000 0.000000 0.000000 56.144563 21.021147 6.272279 14.868754 -23.962938 3.172464 33.597042 -27.508265 29.497544 0.000000 0.000000 0.000000 -7.125000 0.000000 0.000000 1.524228 -4.192346 1.631614 0.000000 0.000000 0.000000 -53.362629 21.865224 -2.453790 -20.573230 -31.326624 -5.826537 -24.526699 20.896576 38.759350 0.000000 0.000000 0.000000 7.125000 0.000000 0.000000 16.122187 70.816124 -10.012495
4.561776 17.462977 2.408048 -6.472408 -9.734128 4.424356 0.000000 0.000000 0.000000 -21.407494 -4.258922 -15.705306 2.222799 9.315612 26.787593 0.573609 0.817787 -14.626931 0.552402 4.760863 13.227773 0.000000 0.000000 0.000000 4.133393 22.633434 -103.318200 -24.582500 -19.488938 103.508801 -6.679303 -9.102942 47.922686 -0.296187 3.499677 -9.673101 3.138986 -0.332996 12.425189 1.476195 -0.072538 5.260786 -0.224011 -0.023507 -1.455143 -2.299849 -0.560429 -12.528985 0.281220 -0.421666 35.378436 0.443374 -0.502176 14.193976 0.000000 0.000000 0.000000 56.369912 21.094456 5.615856 15.335943 -24.611600 3.364827 31.539273 -27.559129 30.877843 0.000000 0.000000 0.000000 -7.125000 0.000000 0.000000 0.068388 -5.075431 0.076999 0.000000 0.000000 0.000000 -53.577289 21.638047 -3.057992 -20.204802 -30.888346 -5.636146 -25.320796 22.091062 38.264475 0.000000 0.000000 0.000000 7.125000 0.000000 0.000000 14.402062 70.611934 -8.864274
4.560787 17.454360 2.394427 -6.235218 -9.526933 4.433881 0.000000 0.000000 0.000000 -21.629635 -4.213574 -15.973346 2.255698 9.379569 26.990152 0.592685 0.464861 -14.720805 0.663098 5.207184 14.500545 0.000000 0.000000 0.000000 3.688730 22.336595 -103.614090 -24.590399 -19.487060 103.532683 -6.717718 -9.839912 48.008403 -0.239499 3.148801 -8.693229 2.908588 -0.405283 12.650002 1.438431 -0.180540 5.136115 -0.117871 -0.082837 -1.710162 -2.356598 -0.544089 -12.381825 0.398772 -0.429314 35.352786 0.500063 -0.497648 14.149280 0.000000 0.000000 0.000000 56.628558 21.212887 5.533434 15.288271 -24.545839 3.344971 31.947989 -27.003720 29.337882 0.000000 0.000000 0.000000 -7.125000 0.000000 0.000000 0.616513 -3.540528 0.656207 0.000000 0.000000 0.000000 -53.910575 21.673664 -2.917775 -20.213623 -30.898781 -5.640588 -24.810600 21.928098 38.439675 0.000000 0.000000 0.000000 7.125000 0.000000 0.000000 15.315411 70.609707 -9.434469
4.560991 17.444158 2.391178 -6.287878 -9.424576 4.397835 0.000000 0.000000 0.000000 -21.562920 -4.000148 -16.152001 2.292272 9.449941 27.213166 0.595120 0.156862 -14.635280 0.656812 5.183579 14.433064 0.000000 0.000000 0.000000 3.632704 22.194641 -103.674820 -24.612156 -19.482157 103.597691 -6.708516 -10.735151 47.907186 -0.162280 2.594603 -7.152116 3.055331 -0.429373 12.496767 1.424750 -0.208643 5.322563 -0.212074 -0.090811 -1.433124 -2.490256 -0.587981 -12.654278 0.715796 -0.559999 35.331404 0.632066 -0.528054 14.204605 0.000000 0.000000 0.000000 56.950198 20.695954 6.945124 13.954782 -22.662695 2.815257 39.409897 -36.382131 41.848604 0.000000 0.000000 0.000000 -7.125000 0.000000 0.000000 0.812149 -19.215235 1.091321 0.000000 0.000000 0.000000 -53.963666 21.727258 -2.899306 -20.579885 -31.334494 -5.829969 -25.691795 22.485205 39.433487 0.000000 0.000000 0.000000 7.125000 0.000000 0.000000 15.491904 71.837384 -9.961695
4.564959 17.436197 2.389706 -6.198497 -9.335530 4.222394 0.000000 0.000000 0.000000 -21.696623 -3.893112 -16.070283 2.312901 9.489515 27.338813 0.605297 0.035262 -14.715483 0.634208 5.095231 14.180482 0.000000 0.000000 0.000000 3.546933 21.950019 -103.551088 -24.638254 -19.476184 103.676085 -6.689875 -11.357680 47.795890 -0.131062 2.327873 -6.412916 3.113290 -0.461666 12.543398 1.381211 -0.246978 5.423469 -0.284722 -0.107219 -1.353878 -2.569038 -0.618034 -12.740868 0.868415 -0.634229 35.378565 0.696746 -0.549971 14.248183 0.000000 0.000000 0.000000 57.195019 20.732070 8.858432 12.884306 -21.117487 2.411453 49.768041 -50.469807 56.449145 0.000000 0.000000 0.000000 -7.125000 0.000000 0.000000 -1.455194 -36.751190 -2.048860 0.000000 0.000000 0.000000 -54.148192 21.675770 -3.172246 -20.514879 -31.257452 -5.796289 -25.163213 22.558358 40.050967 0.000000 0.000000 0.000000 7.125000 0.000000 0.000000 17.147271 72.228686 -11.190806
4.567650 17.430887 2.387779 -5.968630 -9.407438 4.188825 0.000000 0.000000 0.000000 -21.965926 -3.881892 -16.110250 2.319168 9.501437 27.376845 0.606505 0.051444 -14.735805 0.670632 5.236808 14.585185 0.000000 0.000000 0.000000 3.247854 21.848328 -103.671539 -24.630277 -19.477990 103.652188 -6.825122 -11.149527 48.331642 -0.051502 1.452549 -3.995052 2.954432 -0.423421 12.570027 1.302708 -0.213868 5.383504 -0.281248 -0.092829 -1.409534 -2.571375 -0.638197 -12.794842 0.902375 -0.675131 35.510970 0.705109 -0.564357 14.322513 0.000000 0.000000 0.000000 57.439454 21.037015 7.269720 14.346424 -23.205375 2.977247 38.815253 -38.953545 46.128227 0.000000 0.000000 0.000000 -7.125000 0.000000 0.000000 -2.200416 -22.496372 -3.015013 0.000000 0.000000 0.000000 -54.419652 21.701587 -3.322308 -20.150008 -30.822690 -5.608021 -25.868663 23.298335 39.765413 0.000000 0.000000 0.000000 7.125000 0.000000 0.000000 15.740218 72.206374 -10.252950
